<svg width="25" height="24" viewBox="0 0 25 24" fill="none" xmlns="http://www.w3.org/2000/svg">
<g clip-path="url(#clip0_88124_85832)">
<path d="M12.2558 0.181641C7.32103 0.181641 5.8778 0.186731 5.59726 0.210003C4.58457 0.294183 3.9544 0.453632 3.26788 0.79544C2.7388 1.05816 2.32154 1.3627 1.90974 1.78959C1.15976 2.56811 0.70523 3.5259 0.54069 4.66441C0.460692 5.21712 0.43742 5.32985 0.432693 8.15304C0.430875 9.0941 0.432693 10.3326 0.432693 11.9938C0.432693 16.9246 0.438147 18.3664 0.461783 18.6464C0.543599 19.6318 0.698139 20.2518 1.0254 20.9299C1.65084 22.2281 2.84535 23.2026 4.25258 23.5662C4.73984 23.6917 5.278 23.7607 5.96889 23.7935C6.26161 23.8062 9.24515 23.8153 12.2305 23.8153C15.2159 23.8153 18.2012 23.8117 18.4867 23.7971C19.2867 23.7595 19.7512 23.6971 20.2648 23.5644C21.6811 23.1989 22.8538 22.239 23.492 20.9226C23.8129 20.2609 23.9756 19.6172 24.0492 18.6833C24.0653 18.4796 24.072 15.233 24.072 11.9907C24.072 8.74793 24.0647 5.5073 24.0487 5.30367C23.9742 4.35461 23.8114 3.71644 23.4802 3.04192C23.2084 2.48975 22.9066 2.0774 22.4684 1.65578C21.6864 0.908891 20.7301 0.45436 19.5905 0.290001C19.0383 0.210185 18.9283 0.18655 16.1029 0.181641H12.2558Z" fill="url(#paint0_radial_88124_85832)"/>
<path d="M12.2558 0.181641C7.32103 0.181641 5.8778 0.186731 5.59726 0.210003C4.58457 0.294183 3.9544 0.453632 3.26788 0.79544C2.7388 1.05816 2.32154 1.3627 1.90974 1.78959C1.15976 2.56811 0.70523 3.5259 0.54069 4.66441C0.460692 5.21712 0.43742 5.32985 0.432693 8.15304C0.430875 9.0941 0.432693 10.3326 0.432693 11.9938C0.432693 16.9246 0.438147 18.3664 0.461783 18.6464C0.543599 19.6318 0.698139 20.2518 1.0254 20.9299C1.65084 22.2281 2.84535 23.2026 4.25258 23.5662C4.73984 23.6917 5.278 23.7607 5.96889 23.7935C6.26161 23.8062 9.24515 23.8153 12.2305 23.8153C15.2159 23.8153 18.2012 23.8117 18.4867 23.7971C19.2867 23.7595 19.7512 23.6971 20.2648 23.5644C21.6811 23.1989 22.8538 22.239 23.492 20.9226C23.8129 20.2609 23.9756 19.6172 24.0492 18.6833C24.0653 18.4796 24.072 15.233 24.072 11.9907C24.072 8.74793 24.0647 5.5073 24.0487 5.30367C23.9742 4.35461 23.8114 3.71644 23.4802 3.04192C23.2084 2.48975 22.9066 2.0774 22.4684 1.65578C21.6864 0.908891 20.7301 0.45436 19.5905 0.290001C19.0383 0.210185 18.9283 0.18655 16.1029 0.181641H12.2558Z" fill="url(#paint1_radial_88124_85832)"/>
<path d="M12.2504 3.27246C9.88033 3.27246 9.58289 3.28282 8.652 3.32519C7.72294 3.36773 7.08878 3.51482 6.53389 3.73063C5.9599 3.95353 5.47301 4.2517 4.98793 4.73696C4.50249 5.22204 4.20432 5.70893 3.98069 6.28273C3.76433 6.83781 3.61707 7.47215 3.57525 8.40085C3.53361 9.33173 3.52271 9.62936 3.52271 11.9995C3.52271 14.3696 3.53325 14.6661 3.57543 15.597C3.61816 16.5261 3.76524 17.1602 3.98087 17.7151C4.20396 18.2891 4.50213 18.776 4.98739 19.2611C5.47228 19.7465 5.95918 20.0454 6.5328 20.2683C7.08805 20.4841 7.7224 20.6312 8.65128 20.6738C9.58216 20.7161 9.87942 20.7265 12.2493 20.7265C14.6196 20.7265 14.9162 20.7161 15.8471 20.6738C16.7761 20.6312 17.411 20.4841 17.9663 20.2683C18.5401 20.0454 19.0262 19.7465 19.5111 19.2611C19.9966 18.776 20.2947 18.2891 20.5184 17.7153C20.7329 17.1602 20.8802 16.5259 20.9238 15.5972C20.9656 14.6663 20.9765 14.3696 20.9765 11.9995C20.9765 9.62936 20.9656 9.33191 20.9238 8.40103C20.8802 7.47197 20.7329 6.83781 20.5184 6.28292C20.2947 5.70893 19.9966 5.22204 19.5111 4.73696C19.0257 4.25152 18.5403 3.95335 17.9657 3.73063C17.4094 3.51482 16.7748 3.36773 15.8458 3.32519C14.9149 3.28282 14.6186 3.27246 12.2477 3.27246H12.2504ZM11.4676 4.84514C11.6999 4.84478 11.9592 4.84514 12.2504 4.84514C14.5806 4.84514 14.8567 4.8535 15.7769 4.89532C16.6278 4.93423 17.0896 5.07641 17.3972 5.19586C17.8045 5.35403 18.0948 5.54312 18.4001 5.84856C18.7055 6.15401 18.8946 6.44491 19.0531 6.85217C19.1726 7.15943 19.315 7.62124 19.3537 8.47212C19.3955 9.39209 19.4046 9.66845 19.4046 11.9975C19.4046 14.3265 19.3955 14.6028 19.3537 15.5228C19.3148 16.3737 19.1726 16.8355 19.0531 17.1428C18.895 17.55 18.7055 17.84 18.4001 18.1453C18.0946 18.4507 17.8046 18.6398 17.3972 18.798C17.0899 18.918 16.6278 19.0598 15.7769 19.0987C14.8569 19.1405 14.5806 19.1496 12.2504 19.1496C9.92015 19.1496 9.64397 19.1405 8.724 19.0987C7.87312 19.0594 7.41131 18.9173 7.10351 18.7978C6.69625 18.6396 6.40534 18.4505 6.0999 18.1451C5.79445 17.8397 5.60537 17.5495 5.44683 17.142C5.32738 16.8348 5.18502 16.373 5.14629 15.5221C5.10448 14.6021 5.09611 14.3258 5.09611 11.9953C5.09611 9.66481 5.10448 9.38991 5.14629 8.46994C5.1852 7.61906 5.32738 7.15725 5.44683 6.84963C5.60501 6.44236 5.79445 6.15146 6.0999 5.84602C6.40534 5.54057 6.69625 5.35149 7.10351 5.19295C7.41113 5.07295 7.87312 4.93114 8.724 4.89205C9.52907 4.85569 9.84106 4.84478 11.4676 4.84296V4.84514ZM16.9088 6.29419C16.3307 6.29419 15.8616 6.76272 15.8616 7.34106C15.8616 7.91923 16.3307 8.38831 16.9088 8.38831C17.487 8.38831 17.9561 7.91923 17.9561 7.34106C17.9561 6.7629 17.487 6.29382 16.9088 6.29382V6.29419ZM12.2504 7.51779C9.77542 7.51779 7.76876 9.52445 7.76876 11.9995C7.76876 14.4745 9.77542 16.4802 12.2504 16.4802C14.7255 16.4802 16.7314 14.4745 16.7314 11.9995C16.7314 9.52445 14.7253 7.51779 12.2503 7.51779H12.2504ZM12.2504 9.09047C13.8569 9.09047 15.1594 10.3928 15.1594 11.9995C15.1594 13.606 13.8569 14.9085 12.2504 14.9085C10.6438 14.9085 9.34144 13.606 9.34144 11.9995C9.34144 10.3928 10.6438 9.09047 12.2504 9.09047Z" fill="white"/>
</g>
<defs>
<radialGradient id="paint0_radial_88124_85832" cx="0" cy="0" r="1" gradientUnits="userSpaceOnUse" gradientTransform="translate(6.71131 25.6356) rotate(-90) scale(23.4227 21.7909)">
<stop stop-color="#FFDD55"/>
<stop offset="0.1" stop-color="#FFDD55"/>
<stop offset="0.5" stop-color="#FF543E"/>
<stop offset="1" stop-color="#C837AB"/>
</radialGradient>
<radialGradient id="paint1_radial_88124_85832" cx="0" cy="0" r="1" gradientUnits="userSpaceOnUse" gradientTransform="translate(-3.52796 1.88417) rotate(78.6776) scale(10.4701 43.1693)">
<stop stop-color="#3771C8"/>
<stop offset="0.128" stop-color="#3771C8"/>
<stop offset="1" stop-color="#6600FF" stop-opacity="0"/>
</radialGradient>
<clipPath id="clip0_88124_85832">
<rect width="24" height="23.9993" fill="white" transform="translate(0.25)"/>
</clipPath>
</defs>
</svg>
