<svg width="25" height="24" viewBox="0 0 25 24" fill="none" xmlns="http://www.w3.org/2000/svg">
<path d="M2.57227 20.538L2.65099 20.7603C2.64091 20.7348 2.61211 20.6571 2.57227 20.538ZM5.6878 15.5008C5.82606 14.3065 6.29555 13.6377 7.18028 12.9522C8.44618 12.0238 10.0275 12.549 10.0275 12.549V9.43345C10.4119 9.4232 10.7965 9.44698 11.1767 9.5045V13.5139C11.1767 13.5139 9.5959 12.9887 8.33001 13.9176C7.44575 14.6026 6.9753 15.2718 6.83753 16.4662C6.8332 17.1148 6.94986 17.9625 7.48704 18.6956C7.35422 18.6245 7.21885 18.5436 7.08091 18.4527C5.89758 17.6236 5.68204 16.3798 5.6878 15.5008ZM17.7059 3.67283C16.8351 2.6772 16.5058 1.67198 16.3867 0.96582H17.4822C17.4822 0.96582 17.2638 2.81738 18.8556 4.63822L18.8777 4.6627C18.4487 4.38112 18.0552 4.04876 17.7059 3.67283ZM22.9831 6.49554V10.4243C22.9831 10.4243 21.5852 10.3672 20.5507 10.0926C19.1062 9.70852 18.1778 9.1195 18.1778 9.1195C18.1778 9.1195 17.5364 8.69945 17.4846 8.67017V16.783C17.4846 17.2348 17.366 18.3629 17.0045 19.3038C16.5326 20.5346 15.8044 21.3426 15.6705 21.5077C15.6705 21.5077 14.7848 22.5998 13.2222 23.3353C11.8137 23.9987 10.5771 23.9819 10.2075 23.9987C10.2075 23.9987 8.06982 24.087 6.14625 22.7827C5.73029 22.4952 5.34201 22.1696 4.98645 21.8101L4.99605 21.8173C6.92009 23.1216 9.05728 23.0333 9.05728 23.0333C9.4274 23.0165 10.664 23.0333 12.072 22.3699C13.6331 21.6344 14.5203 20.5423 14.5203 20.5423C14.6528 20.3772 15.3844 19.5693 15.8543 18.3379C16.2149 17.3975 16.3344 16.2689 16.3344 15.8172V7.70527C16.3862 7.73503 17.0271 8.15507 17.0271 8.15507C17.0271 8.15507 17.956 8.74458 19.4005 9.12814C20.4355 9.40273 21.8329 9.45986 21.8329 9.45986V6.38128C22.311 6.49314 22.7186 6.52338 22.9831 6.49554Z" fill="#EE1D52"/>
<path d="M21.8333 6.38128V9.45889C21.8333 9.45889 20.4359 9.40177 19.4009 9.12718C17.9564 8.74314 17.0275 8.15411 17.0275 8.15411C17.0275 8.15411 16.3866 7.73407 16.3348 7.70431V15.8181C16.3348 16.2699 16.2162 17.3985 15.8548 18.3389C15.3829 19.5702 14.6546 20.3782 14.5207 20.5433C14.5207 20.5433 13.6345 21.6354 12.0724 22.3708C10.6644 23.0343 9.42782 23.0175 9.0577 23.0343C9.0577 23.0343 6.92051 23.1226 4.99646 21.8183L4.98686 21.8111C4.78372 21.6059 4.59251 21.3892 4.41416 21.1621C3.80017 20.381 3.42381 19.4574 3.32924 19.1939C3.32908 19.1928 3.32908 19.1916 3.32924 19.1905C3.17706 18.7325 2.85735 17.6327 2.90103 16.5675C2.97832 14.6881 3.61199 13.5345 3.77953 13.2455C4.22324 12.4575 4.80034 11.7524 5.48515 11.1616C6.08946 10.6519 6.77441 10.2463 7.51193 9.96151C8.30921 9.62714 9.16296 9.44791 10.0274 9.43345V12.549C10.0274 12.549 8.44611 12.0257 7.1807 12.9522C6.29596 13.6377 5.82647 14.3065 5.68822 15.5008C5.68245 16.3798 5.898 17.6236 7.08036 18.4531C7.2183 18.5444 7.35367 18.6253 7.48649 18.6961C7.69305 18.9762 7.94446 19.2203 8.23057 19.4185C9.38557 20.1813 10.3534 20.2346 11.5909 19.7392C12.4161 19.408 13.0373 18.6615 13.3254 17.8344C13.5063 17.3178 13.5039 16.7979 13.5039 16.2603V0.96582H16.3842C16.5033 1.67198 16.8326 2.6772 17.7034 3.67283C18.0528 4.04876 18.4462 4.38112 18.8752 4.6627C19.002 4.79951 19.65 5.47591 20.482 5.89115C20.9121 6.10579 21.3656 6.27025 21.8333 6.38128Z" fill="black"/>
<path d="M2.18286 18.2373V18.2397L2.25391 18.4418C2.24575 18.4183 2.21935 18.3468 2.18286 18.2373Z" fill="#69C9D0"/>
<path d="M7.51196 9.96152C6.77445 10.2463 6.08949 10.6519 5.48518 11.1616C4.80016 11.7537 4.2232 12.4603 3.78004 13.2499C3.6125 13.5379 2.97883 14.6924 2.90155 16.5718C2.85786 17.6371 3.17758 18.7369 3.32975 19.1948C3.32959 19.1959 3.32959 19.1971 3.32975 19.1982C3.42576 19.4593 3.80068 20.383 4.41467 21.1664C4.59302 21.3935 4.78423 21.6102 4.98737 21.8154C4.33651 21.3653 3.75605 20.8211 3.26494 20.2005C2.65624 19.4262 2.28084 18.5122 2.18291 18.2424C2.18279 18.2405 2.18279 18.2386 2.18291 18.2367V18.2333C2.03025 17.7758 1.70958 16.6755 1.75422 15.6088C1.83151 13.7294 2.46518 12.5759 2.63272 12.2869C3.07574 11.4972 3.65272 10.7906 4.33786 10.1987C4.94204 9.68873 5.62703 9.28313 6.36464 8.99854C6.82472 8.80764 7.30401 8.66682 7.79423 8.57849C8.53301 8.44953 9.28756 8.43835 10.0298 8.54537V9.43346C9.16458 9.44762 8.30999 9.62685 7.51196 9.96152Z" fill="#69C9D0"/>
<path d="M16.3867 0.965864H13.5064V16.2608C13.5064 16.7985 13.5064 17.3169 13.3278 17.8349C13.0369 18.6615 12.4182 19.408 11.5934 19.7392C10.3554 20.2366 9.38759 20.1814 8.23306 19.4186C7.94646 19.2212 7.6944 18.9779 7.48706 18.6985C8.47069 19.2232 9.3511 19.2141 10.4418 18.7763C11.266 18.445 11.8858 17.6985 12.1757 16.8714C12.3572 16.3549 12.3548 15.835 12.3548 15.2978V0H16.332C16.332 0 16.2874 0.380201 16.3867 0.965864ZM21.8334 5.5302V6.38133C21.3665 6.27012 20.9139 6.10566 20.4845 5.89119C19.6525 5.47595 19.0045 4.79956 18.8777 4.66274C19.0248 4.75929 19.1774 4.84714 19.3347 4.92581C20.3462 5.43083 21.3423 5.58156 21.8334 5.5302Z" fill="#69C9D0"/>
</svg>
